<svg width="80" height="82" viewBox="0 0 80 82" fill="none" xmlns="http://www.w3.org/2000/svg">
<g clip-path="url(#clip0_631_7)">
<path d="M79.9578 41.6991C79.9578 38.3451 79.6857 35.8976 79.0967 33.3594H40.7969V48.4978H63.278C62.8249 52.2599 60.3774 57.9256 54.9382 61.7327L54.862 62.2395L66.9717 71.6207L67.8107 71.7045C75.5158 64.5883 79.9578 54.1182 79.9578 41.6991" fill="#4285F4"/>
<path d="M40.797 81.5853C51.8109 81.5853 61.0571 77.9591 67.8108 71.7045L54.9384 61.7327C51.4937 64.1349 46.8705 65.812 40.797 65.812C30.0097 65.812 20.8541 58.6961 17.5904 48.8606L17.112 48.9012L4.52014 58.6461L4.35547 59.1039C11.0635 72.4294 24.8424 81.5853 40.797 81.5853Z" fill="#34A853"/>
<path d="M17.5899 48.8606C16.7287 46.3224 16.2304 43.6027 16.2304 40.7927C16.2304 37.9823 16.7287 35.2629 17.5446 32.7248L17.5218 32.1842L4.77216 22.2827L4.35502 22.4811C1.59031 28.0109 0.00390625 34.2205 0.00390625 40.7927C0.00390625 47.3648 1.59031 53.5742 4.35502 59.1039L17.5899 48.8606" fill="#FBBC05"/>
<path d="M40.797 15.7731C48.4569 15.7731 53.6238 19.0818 56.5701 21.8468L68.0826 10.6061C61.0121 4.03396 51.8109 0 40.797 0C24.8424 0 11.0635 9.15562 4.35547 22.4811L17.545 32.7248C20.8541 22.8892 30.0097 15.7731 40.797 15.7731" fill="#EB4335"/>
</g>
<defs>
<clipPath id="clip0_631_7">
<rect width="80" height="81.8666" fill="white"/>
</clipPath>
</defs>
</svg>
